<svg xmlns="http://www.w3.org/2000/svg" version="1.1" xmlns:xlink="http://www.w3.org/1999/xlink" xmlns:svgjs="http://svgjs.dev/svgjs" width="1500" height="1500" viewBox="0 0 1500 1500"><rect width="1500" height="1500" fill="#3b4131"></rect><g transform="matrix(0.6666666666666666,0,0,0.6666666666666666,250,250)"><svg viewBox="0 0 280 280" data-background-color="#3b4131" preserveAspectRatio="xMidYMid meet" height="1500" width="1500" xmlns="http://www.w3.org/2000/svg" xmlns:xlink="http://www.w3.org/1999/xlink"><g id="tight-bounds" transform="matrix(1,0,0,1,0,0)"><svg viewBox="0 0 280 280" height="280" width="280"><g><svg viewBox="0 0 280 280" height="280" width="280"><g transform="matrix(1,0,0,1,61.57728850316943,60.80404050710668)"><svg viewBox="0 0 156.84542299366115 158.39191898578665" height="158.39191898578665" width="156.84542299366115"><g><svg viewBox="0 0 156.84542299366115 158.39191898578665" height="158.39191898578665" width="156.84542299366115"><g><svg viewBox="0 0 156.84542299366115 158.39191898578665" height="158.39191898578665" width="156.84542299366115"><g id="textblocktransform"><svg viewBox="0 0 156.84542299366115 158.39191898578665" height="158.39191898578665" width="156.84542299366115" id="textblock"><g><svg viewBox="0 0 156.84542299366115 158.39191898578665" height="158.39191898578665" width="156.84542299366115"><g transform="matrix(1,0,0,1,0,0)"><svg width="156.84542299366115" viewBox="13.374590000000001 -24.87873 25.8387 26.093500000000002" height="158.39191898578665" data-palette-color="#fff6db"><path d="M18.899 0.131v0c-1.015 0.227-2.008 0.262-2.979 0.104-0.97-0.152-1.818-0.447-2.545-0.885v0l0.982-2.752c0.546 0.363 1.162 0.628 1.849 0.796 0.688 0.174 1.351 0.189 1.988 0.046v0c1.06-0.237 1.814-0.806 2.262-1.705 0.448-0.9 0.469-2.254 0.063-4.063v0l-3.549-15.847 3.142-0.704 3.475 15.516c0.627 2.797 0.488 4.97-0.415 6.518-0.91 1.55-2.334 2.542-4.273 2.976zM28.259 0.127v0c-1.011-0.135-1.937-0.478-2.779-1.027-0.836-0.542-1.47-1.327-1.905-2.353-0.434-1.027-0.545-2.336-0.332-3.929v0l1.519-11.359 3.023 0.404-1.465 10.953c-0.183 1.368-0.029 2.454 0.462 3.26 0.484 0.805 1.285 1.282 2.402 1.431v0c0.918 0.123 1.835 0.06 2.749-0.187 0.908-0.255 1.742-0.652 2.5-1.19v0l1.757-13.143 3.023 0.405-1.729 12.934c-0.129 0.965-0.006 1.627 0.37 1.987 0.376 0.36 0.808 0.572 1.297 0.638v0l-0.949 2.264c-2.088-0.279-3.266-1.281-3.533-3.005v0c-0.894 0.701-1.89 1.234-2.988 1.598-1.099 0.371-2.24 0.477-3.422 0.319z" opacity="1" transform="matrix(1,0,0,1,0,0)" fill="#fff6db" class="wordmark-text-0" data-fill-palette-color="primary" id="text-0"></path></svg></g></svg></g></svg></g></svg></g><g></g></svg></g></svg></g><g id="text-0"><path d="M82.034 37.492v0c-1.097 0.613-2.234 0.998-3.414 1.156-1.179 0.158-2.263 0.107-3.253-0.153v0l0.186-3.53c0.757 0.234 1.562 0.332 2.416 0.293 0.854-0.039 1.627-0.252 2.318-0.639v0c1.144-0.64 1.82-1.557 2.029-2.752 0.208-1.196-0.234-2.771-1.327-4.726v0l-9.574-17.129 3.398-1.899 9.373 16.772c1.692 3.028 2.281 5.593 1.766 7.695-0.515 2.102-1.821 3.74-3.918 4.912z" fill="#bbaefe" data-fill-palette-color="accent"></path><path d="M175.529 27.88v0c-1.172-0.371-2.2-0.968-3.085-1.792-0.885-0.824-1.478-1.892-1.78-3.205-0.301-1.313-0.159-2.893 0.426-4.742v0l4.174-13.202 3.516 1.111-4.027 12.734c-0.502 1.588-0.549 2.913-0.139 3.973 0.409 1.06 1.265 1.796 2.567 2.208v0c1.068 0.338 2.171 0.45 3.309 0.338 1.138-0.113 2.213-0.41 3.225-0.892v0l4.83-15.273 3.515 1.112-4.755 15.038c-0.354 1.12-0.346 1.932 0.025 2.435 0.371 0.504 0.842 0.846 1.415 1.028v0l-1.607 2.499c-2.422-0.766-3.614-2.203-3.578-4.311v0c-1.208 0.649-2.503 1.077-3.886 1.285-1.383 0.207-2.765 0.092-4.145-0.344z" fill="#bbaefe" data-fill-palette-color="accent"></path><path d="M70.762 263.204v0c-1.097-0.613-2.021-1.38-2.774-2.3-0.752-0.921-1.277-1.871-1.574-2.851v0l3.104-1.692c0.197 0.767 0.536 1.504 1.017 2.211 0.481 0.707 1.067 1.253 1.758 1.64v0c1.144 0.64 2.28 0.735 3.407 0.285 1.127-0.449 2.237-1.652 3.33-3.606v0l9.573-17.129 3.397 1.898-9.373 16.772c-1.692 3.028-3.568 4.873-5.628 5.536-2.06 0.663-4.139 0.409-6.237-0.764z" fill="#bbaefe" data-fill-palette-color="accent"></path><path d="M182.495 274.677v0c-1.172 0.371-2.357 0.473-3.555 0.308-1.198-0.165-2.298-0.699-3.298-1.6-1.001-0.901-1.794-2.276-2.378-4.124v0l-4.175-13.202 3.515-1.112 4.027 12.734c0.502 1.588 1.226 2.699 2.17 3.331 0.945 0.632 2.068 0.742 3.37 0.33v0c1.068-0.338 2.035-0.88 2.902-1.626 0.867-0.747 1.575-1.608 2.126-2.584v0l-4.83-15.273 3.516-1.111 4.755 15.038c0.354 1.12 0.828 1.779 1.42 1.978 0.593 0.199 1.176 0.208 1.749 0.027v0l0.122 2.969c-2.422 0.766-4.224 0.276-5.405-1.47v0c-0.615 1.226-1.429 2.321-2.442 3.285-1.013 0.965-2.209 1.665-3.589 2.102z" fill="#bbaefe" data-fill-palette-color="accent"></path><path d="M0 140.264c0-6.05 4.904-10.954 10.954-10.955 6.05 0 10.954 4.904 10.955 10.955 0 6.05-4.904 10.954-10.955 10.954-6.05 0-10.954-4.904-10.954-10.954z" fill="#bbaefe" data-fill-palette-color="accent"></path><path d="M258.091 140.264c0-6.05 4.904-10.954 10.955-10.955 6.05 0 10.954 4.904 10.954 10.955 0 6.05-4.904 10.954-10.954 10.954-6.05 0-10.954-4.904-10.955-10.954z" fill="#bbaefe" data-fill-palette-color="accent"></path></g><g id="text-1"></g></svg></g><defs></defs></svg><rect width="280" height="280" fill="none" stroke="none" visibility="hidden"></rect></g></svg></g></svg>